<?xml version="1.0" standalone="no"?>
<!DOCTYPE svg PUBLIC "-//W3C//DTD SVG 20010904//EN"
 "http://www.w3.org/TR/2001/REC-SVG-20010904/DTD/svg10.dtd">
<svg version="1.0" xmlns="http://www.w3.org/2000/svg"
 width="820.000000pt" height="530.000000pt" viewBox="0 0 820.000000 530.000000"
 preserveAspectRatio="xMidYMid meet">

<g transform="translate(0.000000,530.000000) scale(0.100000,-0.100000)"
fill="#000000" stroke="none">
<path d="M4835 4793 c-181 -22 -370 -63 -520 -113 -115 -39 -67 -31 100 15
255 71 380 89 570 81 83 -3 175 -9 205 -12 30 -4 52 -4 49 0 -17 19 -316 40
-404 29z"/>
<path d="M5280 4754 c14 -3 79 -15 145 -28 66 -13 147 -29 180 -35 73 -13 287
-91 335 -120 8 -5 44 -23 80 -39 159 -71 435 -280 414 -313 -4 -6 -1 -15 6
-19 41 -25 -222 -275 -381 -362 -37 -20 -120 -71 -185 -114 -176 -117 -301
-177 -419 -204 -55 -12 -135 -34 -178 -47 -100 -32 -189 -40 -458 -42 -214 -2
-418 15 -499 41 -19 6 -62 17 -95 24 -84 18 -145 31 -260 59 -55 13 -134 31
-175 40 -90 21 -304 100 -341 125 -36 26 -168 78 -269 106 -115 32 -230 32
-230 0 0 -10 12 -10 50 -2 83 17 199 -18 471 -139 52 -24 115 -48 140 -55 24
-6 78 -22 119 -36 210 -69 632 -160 815 -175 167 -13 597 -7 655 10 19 6 76
21 125 34 177 47 321 97 379 132 32 19 62 35 65 35 4 0 26 16 48 35 23 19 46
35 51 35 5 0 15 7 23 16 7 8 33 27 58 40 72 38 193 116 239 152 25 20 49 32
58 28 19 -7 109 -194 128 -267 8 -31 21 -70 30 -86 41 -81 138 -558 156 -773
5 -58 16 -148 24 -200 9 -52 16 -160 17 -240 1 -165 -23 -525 -48 -710 -9 -69
-17 -137 -17 -152 -1 -16 -5 -28 -9 -28 -4 0 -7 -15 -6 -33 2 -42 -17 -143
-46 -237 -13 -41 -33 -111 -45 -155 -23 -83 -91 -247 -166 -399 -45 -91 -50
-106 -35 -106 31 0 199 406 265 640 57 202 77 307 77 405 0 50 7 119 16 155 9
39 16 124 18 215 2 83 8 173 13 201 7 30 9 120 6 225 -5 160 -11 213 -35 324
-4 22 -8 69 -9 105 0 36 -7 99 -15 140 -9 41 -17 89 -20 105 -2 17 -12 84 -21
150 -9 66 -23 127 -29 135 -7 8 -29 76 -50 150 -43 158 -101 316 -146 401 -31
57 -31 60 -14 79 10 11 22 20 26 20 33 0 165 -350 189 -503 6 -38 17 -86 24
-107 24 -71 117 -582 116 -645 0 -16 7 -66 16 -110 14 -73 28 -188 40 -320 8
-84 5 -274 -6 -380 -14 -133 -82 -509 -120 -663 -16 -68 -30 -129 -29 -135 2
-45 81 265 99 388 18 125 29 185 45 257 34 154 43 626 14 739 -5 19 -16 98
-24 175 -9 76 -22 171 -30 209 -7 39 -17 93 -20 120 -4 28 -22 115 -40 195
-18 80 -48 210 -65 290 -34 155 -98 348 -150 454 l-32 65 52 58 c29 31 57 67
63 80 6 13 13 23 17 23 19 0 149 -122 226 -212 151 -175 217 -230 370 -307
101 -50 136 -59 264 -67 113 -7 228 9 325 45 28 10 69 22 93 26 23 4 42 11 42
15 0 8 -90 40 -113 40 -5 0 -71 24 -146 54 -140 56 -376 169 -631 301 -157 82
-271 122 -374 132 -47 4 -67 10 -71 22 -11 32 -139 151 -163 151 -6 0 -15 6
-19 14 -4 7 -33 26 -63 41 -30 15 -78 43 -106 61 -76 50 -202 106 -359 157
-203 67 -298 89 -400 93 -49 1 -79 1 -65 -2z m1370 -586 c58 -18 385 -175 580
-277 82 -43 387 -173 435 -186 l30 -8 -34 -14 c-88 -37 -156 -48 -301 -47
-167 0 -181 4 -334 91 -106 60 -161 109 -392 356 -122 130 -122 129 16 85z"/>
<path d="M4072 4610 c-112 -39 -486 -246 -508 -281 -9 -15 50 16 116 60 145
98 307 180 423 216 48 15 87 29 87 31 0 10 -42 1 -118 -26z"/>
<path d="M4582 4534 c3 -2 90 -9 194 -15 324 -18 396 -25 479 -48 125 -35 208
-63 236 -80 25 -15 16 -16 -135 -16 -281 0 -653 -22 -861 -51 -159 -22 -203
-25 -233 -16 -98 29 -171 35 -309 26 -124 -9 -145 -13 -207 -42 -38 -18 -66
-35 -63 -38 3 -3 19 2 35 10 84 44 239 69 357 60 65 -6 154 -30 135 -37 -57
-21 -155 -48 -210 -58 -36 -6 -69 -15 -74 -20 -16 -14 108 3 164 23 88 31 145
45 212 52 35 4 108 13 163 21 127 18 220 27 214 21 -2 -2 -55 -21 -117 -41
-62 -21 -111 -40 -108 -42 3 -3 26 2 53 11 212 68 416 97 738 103 262 5 313
-2 176 -26 -71 -12 -447 -128 -559 -172 -92 -37 -196 -89 -189 -95 3 -3 29 7
59 22 72 37 315 127 413 154 44 11 121 34 170 51 125 40 260 51 433 32 74 -7
136 -12 139 -10 9 10 -120 36 -207 42 -65 5 -104 12 -125 25 -92 56 -347 126
-495 135 -58 3 -141 10 -185 15 -85 9 -301 13 -293 4z"/>
<path d="M4488 4523 c7 -3 16 -2 19 1 4 3 -2 6 -13 5 -11 0 -14 -3 -6 -6z"/>
<path d="M4335 4510 c-16 -7 -13 -9 15 -8 19 0 46 4 60 8 21 7 19 8 -15 8 -22
0 -49 -3 -60 -8z"/>
<path d="M3405 4231 c-50 -32 -113 -78 -141 -102 -143 -122 -285 -252 -280
-256 8 -8 66 37 116 88 77 80 275 241 335 273 39 20 83 55 70 56 -6 0 -51 -27
-100 -59z"/>
<path d="M3870 4195 c-14 -8 -19 -14 -10 -14 8 0 24 6 34 14 25 19 9 19 -24 0z"/>
<path d="M4305 4191 c-42 -19 -267 -186 -273 -202 -8 -20 13 -6 89 57 44 37
116 88 161 115 84 51 93 62 23 30z"/>
<path d="M3755 4163 c-11 -2 -56 -21 -100 -43 -44 -21 -129 -62 -189 -89 -60
-28 -106 -54 -102 -58 5 -6 200 81 301 134 17 9 57 27 90 39 54 21 54 29 0 17z"/>
<path d="M3980 3945 c-7 -8 -8 -15 -2 -15 5 0 15 7 22 15 7 8 8 15 2 15 -5 0
-15 -7 -22 -15z"/>
<path d="M5411 3148 c-1 -20 -6 -49 -13 -65 l-11 -28 -6 35 c-5 28 -11 34 -32
35 -22 2 -25 -2 -22 -29 l4 -31 -16 30 c-8 17 -13 21 -11 10 17 -79 18 -87 8
-81 -6 3 -13 20 -17 36 -4 17 -11 27 -16 24 -6 -3 -17 2 -24 12 -25 32 -16 5
10 -34 14 -20 25 -41 25 -46 0 -17 -42 29 -61 67 -21 40 -34 50 -24 16 5 -16
4 -19 -6 -14 -7 5 -5 -2 4 -16 26 -36 21 -42 -33 -37 -27 3 -50 4 -50 2 0 -11
61 -32 81 -28 24 4 24 4 -1 -5 -14 -5 -37 -12 -52 -15 -36 -8 -73 -47 -56 -58
7 -4 26 -5 42 -2 l29 6 -34 -32 c-19 -18 -26 -29 -16 -26 20 6 21 2 6 -26 -13
-25 -4 -35 16 -18 14 12 15 10 10 -13 -5 -18 -3 -27 5 -27 7 0 9 -8 5 -19 -3
-11 -1 -22 4 -25 5 -4 12 7 16 24 4 17 21 41 39 55 50 38 55 30 11 -16 -22
-23 -34 -38 -26 -34 11 6 13 2 9 -17 -3 -17 1 -29 14 -37 29 -18 38 -13 39 22
1 26 2 27 6 7 10 -64 13 -71 26 -58 7 7 13 33 13 59 0 25 6 54 12 65 9 15 11
7 12 -47 0 -47 4 -70 15 -79 13 -11 15 -2 15 69 0 52 4 80 10 76 6 -3 10 -36
11 -73 1 -44 3 -59 8 -42 7 24 7 24 20 5 11 -17 12 -14 7 25 -2 25 -8 62 -12
83 -4 25 -3 37 5 37 6 0 11 -9 11 -20 0 -34 28 -77 60 -93 33 -17 37 -12 15
17 -8 11 -15 26 -15 34 0 8 14 -4 30 -26 17 -23 35 -42 42 -42 7 0 5 7 -5 18
-20 22 -39 72 -27 72 5 0 18 -14 30 -31 27 -37 38 -31 13 8 -16 25 -16 27 0
14 24 -19 21 0 -6 40 l-23 34 38 -3 c42 -5 52 12 13 22 -18 5 -25 13 -25 30 0
33 -10 39 -34 19 -21 -18 -21 -18 -3 3 21 26 22 38 1 30 -12 -4 -10 1 5 23 12
16 21 33 21 38 0 16 -34 11 -47 -6 -7 -9 -13 -11 -13 -5 0 5 5 15 12 22 9 9 9
15 0 24 -9 9 -19 5 -42 -22 l-31 -35 21 43 c21 43 18 56 -5 25 -12 -16 -14
-13 -20 22 -10 59 -13 64 -14 23z m-47 -111 c4 -19 3 -26 -4 -22 -5 3 -10 18
-10 32 0 32 5 28 14 -10z m95 -63 c42 -53 17 -103 -34 -70 -24 16 -51 14 -40
-4 9 -15 -24 -31 -57 -28 -25 2 -35 9 -42 31 -8 23 -6 31 12 49 26 26 39 19
20 -11 -11 -18 -11 -23 2 -31 8 -5 18 -10 22 -10 10 0 31 40 25 47 -9 9 36 53
54 53 10 0 27 -12 38 -26z m-302 -10 c-3 -3 -12 -4 -19 -1 -8 3 -5 6 6 6 11 1
17 -2 13 -5z m363 -63 c0 -5 -7 -11 -14 -14 -10 -4 -13 -1 -9 9 6 15 23 19 23
5z m-334 -26 c-11 -8 -27 -15 -35 -15 -10 1 -7 6 9 15 33 19 50 18 26 0z m25
-25 c-23 -20 -41 -26 -41 -14 0 11 34 33 50 33 10 0 8 -6 -9 -19z m136 -122
c-2 -13 -4 -5 -4 17 -1 22 1 32 4 23 2 -10 2 -28 0 -40z"/>
<path d="M5421 2971 c-14 -9 -9 -41 7 -41 15 0 34 28 27 40 -8 12 -16 13 -34
1z"/>
<path d="M4356 3013 c-8 -27 -20 -67 -26 -90 -6 -24 -14 -43 -18 -43 -4 1 -16
15 -27 33 -14 22 -28 32 -45 32 -39 0 -62 -60 -66 -170 l-3 -90 14 89 c14 84
39 148 59 150 5 1 22 -15 37 -34 27 -33 29 -41 33 -160 7 -160 42 -450 60
-494 24 -59 48 -58 25 1 -39 102 -76 492 -59 624 11 91 41 169 65 169 30 0 93
-39 122 -77 139 -178 241 -403 273 -603 16 -96 21 -112 29 -83 l6 21 60 -25
c47 -19 82 -47 163 -126 57 -56 123 -127 147 -158 45 -57 183 -299 237 -415
17 -36 32 -63 34 -61 14 14 -117 264 -221 421 -57 87 -157 206 -193 232 -12 8
-22 21 -22 29 0 18 -112 98 -170 121 -54 21 -60 28 -60 74 0 45 -43 200 -68
248 -11 20 -42 77 -68 125 -27 49 -55 101 -63 115 -25 49 -123 153 -162 172
-61 31 -75 27 -93 -27z"/>
<path d="M4151 2611 c-7 -38 -10 -84 -6 -102 3 -19 2 -90 -4 -158 -6 -83 -6
-145 1 -187 9 -51 8 -75 -5 -121 -18 -66 -40 -204 -33 -210 2 -2 12 31 21 74
10 43 26 100 36 126 15 38 17 56 9 90 -11 51 -15 453 -4 515 3 23 4 42 2 42
-3 0 -10 -31 -17 -69z"/>
<path d="M4290 1800 c-46 -50 -70 -193 -41 -248 14 -27 57 -49 109 -58 48 -8
107 23 123 63 24 63 -9 192 -62 245 -39 39 -91 39 -129 -2z m117 -22 c35 -38
55 -88 60 -149 5 -54 4 -60 -25 -88 -36 -37 -68 -39 -131 -11 l-44 21 36 33
c48 44 50 86 7 124 -36 32 -37 39 -8 69 28 30 77 31 105 1z"/>
<path d="M4043 1668 c-24 -69 -43 -136 -42 -149 1 -16 5 -10 14 21 8 25 28 85
45 134 17 49 30 96 28 104 -2 8 -22 -41 -45 -110z"/>
<path d="M5480 1487 c0 -3 11 -46 25 -94 28 -100 46 -240 34 -264 -12 -24 -2
-28 53 -22 67 8 241 -14 303 -38 28 -10 56 -19 62 -19 22 0 103 -101 103 -129
0 -40 -32 -92 -79 -129 -47 -35 -46 -39 2 -18 43 18 97 100 97 147 0 51 -49
112 -115 144 -76 35 -214 66 -315 70 l-85 3 -7 69 c-9 81 -53 262 -68 277 -5
5 -10 7 -10 3z"/>
<path d="M3993 1405 c0 -44 2 -61 4 -37 2 23 2 59 0 80 -2 20 -4 1 -4 -43z"/>
<path d="M4006 1265 c15 -189 85 -389 193 -552 83 -125 188 -215 303 -259 23
-9 48 -22 53 -28 6 -7 39 -13 74 -14 59 -1 81 -6 70 -16 -2 -2 -66 -7 -143
-11 -102 -6 -137 -5 -132 4 4 6 25 11 47 11 22 0 39 5 39 11 0 8 -14 9 -42 5
-24 -4 -71 -9 -106 -13 -34 -3 -65 -9 -67 -13 -14 -22 271 -29 428 -11 45 5
139 13 209 17 70 3 125 10 122 15 -3 5 4 9 16 9 48 0 184 85 284 177 30 28 64
57 74 65 15 11 62 81 62 94 0 12 -22 1 -28 -15 -23 -59 -227 -227 -357 -293
-48 -25 -203 -41 -327 -35 -292 14 -490 150 -637 437 -66 130 -87 199 -135
450 -3 14 -3 -2 0 -35z"/>
<path d="M4890 1218 c0 -4 9 -22 20 -40 28 -45 27 -126 -1 -162 -40 -50 -105
-26 -154 58 -14 24 -34 51 -45 61 -39 35 -23 -13 26 -76 90 -118 184 -121 214
-8 10 35 9 50 -5 85 -15 41 -54 98 -55 82z"/>
<path d="M6469 937 c-16 -22 -59 -142 -59 -161 1 -18 39 57 40 77 0 10 9 36
21 58 23 46 22 58 -2 26z"/>
<path d="M5867 735 c-33 -13 -85 -30 -118 -36 -33 -6 -62 -16 -66 -22 -6 -10
-1 -9 97 16 59 16 150 53 150 62 0 7 4 8 -63 -20z"/>
<path d="M6340 623 c-25 -54 -44 -100 -43 -103 7 -21 24 3 57 79 52 125 41
144 -14 24z"/>
<path d="M5484 659 c12 -8 25 -8 40 -1 18 9 16 11 -19 11 -33 0 -37 -1 -21
-10z"/>
<path d="M5567 658 c16 -8 32 -8 55 0 32 9 31 10 -22 10 -46 1 -52 -1 -33 -10z"/>
<path d="M7018 493 c6 -2 18 -2 25 0 6 3 1 5 -13 5 -14 0 -19 -2 -12 -5z"/>
<path d="M6058 463 c6 -2 18 -2 25 0 6 3 1 5 -13 5 -14 0 -19 -2 -12 -5z"/>
<path d="M6157 463 c18 -2 50 -2 70 0 21 2 7 4 -32 4 -38 0 -55 -2 -38 -4z"/>
<path d="M6678 463 c7 -3 16 -2 19 1 4 3 -2 6 -13 5 -11 0 -14 -3 -6 -6z"/>
<path d="M5478 453 c-60 -2 -108 -8 -108 -12 0 -5 10 -7 23 -4 16 3 18 2 7 -5
-8 -5 -45 -12 -83 -16 -64 -6 -124 -22 -116 -30 7 -7 220 25 273 40 26 8 66
14 87 14 21 0 41 5 44 10 3 6 0 9 -7 8 -7 -1 -61 -4 -120 -5z"/>
<path d="M5210 430 c-15 -6 8 -7 60 -3 47 3 87 7 89 9 9 8 -125 2 -149 -6z"/>
<path d="M5140 420 c-12 -8 -9 -10 13 -10 16 0 26 4 22 10 -8 12 -16 12 -35 0z"/>
<path d="M4528 413 c7 -3 16 -2 19 1 4 3 -2 6 -13 5 -11 0 -14 -3 -6 -6z"/>
<path d="M5525 400 c27 -12 43 -12 25 0 -8 5 -22 9 -30 9 -10 0 -8 -3 5 -9z"/>
<path d="M3343 313 c9 -2 23 -2 30 0 6 3 -1 5 -18 5 -16 0 -22 -2 -12 -5z"/>
<path d="M3200 279 c7 -11 14 -19 16 -16 7 7 -7 37 -17 37 -6 0 -5 -9 1 -21z"/>
<path d="M2625 235 c-44 -7 -106 -15 -138 -19 -32 -4 -56 -10 -53 -14 9 -8
-51 -32 -81 -32 -30 0 -21 -20 10 -21 19 -1 18 -2 -8 -14 -29 -14 -29 -14 -5
-14 14 0 41 6 61 13 19 7 53 10 74 8 25 -3 36 -1 31 6 -7 11 7 17 64 26 26 4
30 4 15 -3 -11 -5 -30 -10 -42 -10 -13 -1 -23 -5 -23 -11 0 -9 85 -3 130 11
l25 7 -27 1 c-53 2 -27 19 44 29 80 12 99 9 47 -7 l-34 -11 40 6 c22 3 69 8
104 10 74 5 86 10 45 19 -16 4 -39 12 -52 18 -17 8 -25 8 -34 -1 -7 -7 -38
-12 -72 -11 -55 1 -58 2 -28 10 17 5 32 12 32 14 0 7 -34 4 -125 -10z m-52
-32 c-7 -2 -19 -2 -25 0 -7 3 -2 5 12 5 14 0 19 -2 13 -5z m-55 -10 c-10 -2
-26 -2 -35 0 -10 3 -2 5 17 5 19 0 27 -2 18 -5z"/>
<path d="M2873 243 c9 -2 23 -2 30 0 6 3 -1 5 -18 5 -16 0 -22 -2 -12 -5z"/>
<path d="M3003 243 c-35 -4 -45 -18 -15 -20 9 -1 28 -4 42 -8 20 -5 22 -5 10
5 -12 9 -5 10 32 5 52 -7 75 9 27 19 -32 6 -38 6 -96 -1z"/>
<path d="M2928 223 c6 -2 18 -2 25 0 6 3 1 5 -13 5 -14 0 -19 -2 -12 -5z"/>
</g>
</svg>
